<?xml version="1.0" encoding="utf-8"?>
<!-- Generator: Adobe Illustrator 20.1.0, SVG Export Plug-In . SVG Version: 6.00 Build 0)  -->
<svg version="1.1" id="Layer_1" xmlns="http://www.w3.org/2000/svg" xmlns:xlink="http://www.w3.org/1999/xlink" x="0px" y="0px"
	 viewBox="0 0 25 25" style="enable-background:new 0 0 25 25;" xml:space="preserve">
<style type="text/css">
	.st0{display:none;}
	.st1{display:inline;fill:#333333;}
	.st2{display:inline;fill:#FFFFFF;}
	.st3{fill:#FFFFFF;}
</style>
<g id="bg" class="st0">
	<rect class="st1" width="25" height="25"/>
</g>
<g id="Layer_1_1_" class="st0">
	<title>cart</title>
	<path class="st2" d="M19,16.5l-14.3,1c-1.1,0-2-0.9-2-2V9.3c0-1.1,0.9-2,2-2H21c1.1,0,2,0.9,2,2l-2,5.3C21,15.6,20.1,16.5,19,16.5z
		"/>
	<path class="st2" d="M17.5,23.5L17.5,23.5c-1.1,0-2-0.9-2-2l0,0c0-1.1,0.9-2,2-2l0,0c1.1,0,2,0.9,2,2l0,0
		C19.5,22.6,18.6,23.5,17.5,23.5z"/>
	<path class="st2" d="M7.5,23.5L7.5,23.5c-1.1,0-2-0.9-2-2l0,0c0-1.1,0.9-2,2-2l0,0c1.1,0,2,0.9,2,2l0,0C9.5,22.6,8.6,23.5,7.5,23.5
		z"/>
	<path class="st2" d="M2.1,5.5h5.3C8,5.5,8.5,5,8.5,4.4l0,0c0-0.6-0.5-1.1-1.1-1.1H2.1C1.5,3.3,1,3.8,1,4.4l0,0C1,5,1.5,5.5,2.1,5.5
		z"/>
</g>
<g id="Layer_3">
	<g id="ecommerce_-_shop_cart">
		<g>
			<path class="st3" d="M18.5,22c-0.8,0-1.5,0.7-1.5,1.5s0.7,1.5,1.5,1.5s1.5-0.7,1.5-1.5S19.3,22,18.5,22z M10.5,22
				C9.7,22,9,22.7,9,23.5S9.7,25,10.5,25s1.5-0.7,1.5-1.5S11.3,22,10.5,22z M24.7,8c-0.1,0-0.1,0-0.2,0h-17C7.4,8,7.4,8,7.4,8L6,2.4
				C6,2.1,5.7,2,5.5,2l0,0h-5C0.2,2,0,2.2,0,2.5S0.2,3,0.5,3h4.6L9,19.6C9,19.9,9.3,20,9.5,20l0,0h11.9c0.1,0,0.2,0,0.3,0
				c0,0,0,0,0.1,0l0,0c0.2-0.1,0.3-0.2,0.3-0.4l0,0l3-10.8C25.1,8.4,24.9,8.1,24.7,8z M21.1,19H9.9L7.6,9h16.3L21.1,19z"/>
		</g>
	</g>
</g>
</svg>
