<svg xmlns="http://www.w3.org/2000/svg" viewBox="0 0 128.47 18.1"><defs><style>.cls-1{fill:#fff;}.cls-2{fill:#f26a54;}</style></defs><title>logo</title><g id="Layer_2" data-name="Layer 2"><g id="Layer_1-2" data-name="Layer 1"><path class="cls-1" d="M6.17,2.07A4.2,4.2,0,0,0,2.83,3.48,5.69,5.69,0,0,0,1.6,7.35a5.8,5.8,0,0,0,1.18,3.9,4.2,4.2,0,0,0,3.37,1.38,11.51,11.51,0,0,0,3.07-.48v1.31a9.45,9.45,0,0,1-3.3.5,5.58,5.58,0,0,1-4.38-1.72A7.09,7.09,0,0,1,0,7.33,7.73,7.73,0,0,1,.74,3.85a5.33,5.33,0,0,1,2.14-2.3A6.49,6.49,0,0,1,6.19.74a8,8,0,0,1,3.53.74L9.09,2.76A6.81,6.81,0,0,0,6.17,2.07Z"/><path class="cls-1" d="M20.12,8.95a5.31,5.31,0,0,1-1.19,3.68,4.18,4.18,0,0,1-3.28,1.32,4.34,4.34,0,0,1-2.29-.61,4,4,0,0,1-1.55-1.74,6.06,6.06,0,0,1-.54-2.65,5.31,5.31,0,0,1,1.18-3.67A4.17,4.17,0,0,1,15.71,4a4.08,4.08,0,0,1,3.21,1.34A5.29,5.29,0,0,1,20.12,8.95Zm-7.34,0a4.57,4.57,0,0,0,.74,2.81,2.56,2.56,0,0,0,2.17,1,2.58,2.58,0,0,0,2.18-1,4.55,4.55,0,0,0,.74-2.82,4.48,4.48,0,0,0-.74-2.79,2.61,2.61,0,0,0-2.19-1,2.57,2.57,0,0,0-2.16.94A4.53,4.53,0,0,0,12.78,8.95Z"/><path class="cls-1" d="M35,13.77V7.51a2.6,2.6,0,0,0-.49-1.73,1.9,1.9,0,0,0-1.53-.58,2.47,2.47,0,0,0-2,.78,3.72,3.72,0,0,0-.65,2.41v5.38H28.81V7.51a2.6,2.6,0,0,0-.49-1.73,1.92,1.92,0,0,0-1.54-.58,2.38,2.38,0,0,0-2,.82,4.45,4.45,0,0,0-.64,2.69v5.05H22.68V4.14h1.19l.24,1.32h.07a2.87,2.87,0,0,1,1.16-1.1A3.56,3.56,0,0,1,27,4,2.86,2.86,0,0,1,30,5.6H30a3.07,3.07,0,0,1,1.25-1.2A3.87,3.87,0,0,1,33.15,4a3.26,3.26,0,0,1,2.45.84,3.75,3.75,0,0,1,.81,2.69v6.28Z"/><path class="cls-1" d="M43.9,13.95a4.17,4.17,0,0,1-1.72-.35,3.23,3.23,0,0,1-1.31-1.07h-.11a12.92,12.92,0,0,1,.11,1.6v4H39.42v-14h1.19l.2,1.32h.07a3.39,3.39,0,0,1,1.31-1.14A4,4,0,0,1,43.9,4a3.56,3.56,0,0,1,3,1.31,5.77,5.77,0,0,1,1,3.67,5.73,5.73,0,0,1-1.06,3.69A3.57,3.57,0,0,1,43.9,13.95ZM43.69,5.2A2.59,2.59,0,0,0,41.55,6a4.21,4.21,0,0,0-.68,2.6v.33a4.82,4.82,0,0,0,.68,2.9,2.57,2.57,0,0,0,2.17.87,2.26,2.26,0,0,0,2-1,4.79,4.79,0,0,0,.71-2.79,4.61,4.61,0,0,0-.71-2.76A2.33,2.33,0,0,0,43.69,5.2Z"/><path class="cls-1" d="M51.82,4.14v6.25a2.51,2.51,0,0,0,.54,1.76,2.18,2.18,0,0,0,1.68.58,2.74,2.74,0,0,0,2.21-.83,4.17,4.17,0,0,0,.7-2.7V4.14H58.4v9.63H57.2L57,12.48h-.08a2.91,2.91,0,0,1-1.24,1.09,4.18,4.18,0,0,1-1.81.38,3.68,3.68,0,0,1-2.63-.83,3.55,3.55,0,0,1-.87-2.67V4.14Z"/><path class="cls-1" d="M64.61,12.74a4.77,4.77,0,0,0,.75-.06,4.84,4.84,0,0,0,.57-.12v1.12a2.67,2.67,0,0,1-.7.19,5.25,5.25,0,0,1-.83.07q-2.79,0-2.79-2.94V5.27H60.22v-.7L61.6,4l.62-2.06h.84V4.14h2.79V5.27H63.06v5.67a2,2,0,0,0,.41,1.34A1.44,1.44,0,0,0,64.61,12.74Z"/><path class="cls-1" d="M71.92,13.95a4.43,4.43,0,0,1-3.37-1.3A5,5,0,0,1,67.32,9a5.58,5.58,0,0,1,1.15-3.7A3.81,3.81,0,0,1,71.54,4a3.63,3.63,0,0,1,2.87,1.19A4.56,4.56,0,0,1,75.46,8.3v.92H68.83a3.82,3.82,0,0,0,.86,2.58,3,3,0,0,0,2.29.88A7.76,7.76,0,0,0,75,12v1.3a7.72,7.72,0,0,1-1.46.48A8.22,8.22,0,0,1,71.92,13.95Zm-.4-8.76a2.38,2.38,0,0,0-1.85.76A3.48,3.48,0,0,0,68.86,8h5a3.21,3.21,0,0,0-.62-2.11A2.17,2.17,0,0,0,71.53,5.19Z"/><path class="cls-1" d="M82.34,4a5.71,5.71,0,0,1,1.15.11l-.2,1.35a5,5,0,0,0-1.05-.13,2.57,2.57,0,0,0-2,.95,3.46,3.46,0,0,0-.83,2.36v5.17H78V4.14h1.2l.17,1.78h.07a4.23,4.23,0,0,1,1.29-1.45A2.91,2.91,0,0,1,82.34,4Z"/><path class="cls-2" d="M90.83,3a2.78,2.78,0,0,0-2.38,1.16,5.38,5.38,0,0,0-.84,3.22q0,4.3,3.23,4.3A10.2,10.2,0,0,0,94.1,11v2.29a9.1,9.1,0,0,1-3.53.66,5.39,5.39,0,0,1-4.29-1.7A7.2,7.2,0,0,1,84.8,7.37a8,8,0,0,1,.73-3.51,5.27,5.27,0,0,1,2.1-2.31,6.2,6.2,0,0,1,3.2-.8,8.65,8.65,0,0,1,3.76.91l-.88,2.21a14.55,14.55,0,0,0-1.45-.6A4.33,4.33,0,0,0,90.83,3Z"/><path class="cls-2" d="M102.11,3.76a4.32,4.32,0,0,1,.91.08l-.2,2.51a3.07,3.07,0,0,0-.79-.09,2.84,2.84,0,0,0-2,.66,2.38,2.38,0,0,0-.72,1.85v5H96.63V3.95h2l.4,1.65h.13a3.69,3.69,0,0,1,1.23-1.33A3,3,0,0,1,102.11,3.76Z"/><path class="cls-2" d="M111,13.77l-.52-1.34h-.07a4,4,0,0,1-1.39,1.18,4.5,4.5,0,0,1-1.87.33,3,3,0,0,1-2.23-.81,3.11,3.11,0,0,1-.81-2.3,2.59,2.59,0,0,1,1.09-2.31,6.34,6.34,0,0,1,3.3-.82l1.71-.05V7.22a1.34,1.34,0,0,0-1.53-1.49,7,7,0,0,0-2.77.71l-.89-1.81a8,8,0,0,1,3.76-.89,4.69,4.69,0,0,1,3,.86,3.18,3.18,0,0,1,1.05,2.62v6.55Zm-.79-4.55-1,0a3.32,3.32,0,0,0-1.74.42,1.33,1.33,0,0,0-.57,1.18q0,1.13,1.3,1.13a2.06,2.06,0,0,0,1.49-.54,1.88,1.88,0,0,0,.56-1.42Z"/><path class="cls-2" d="M121.1,6h-2.32v7.81H116.1V6h-1.48V4.67l1.48-.72V3.23a3.22,3.22,0,0,1,.83-2.45A3.79,3.79,0,0,1,119.58,0,6.89,6.89,0,0,1,122,.41l-.69,2a5,5,0,0,0-1.49-.25,1,1,0,0,0-.83.34,1.4,1.4,0,0,0-.25.87v.62h2.32Z"/><path class="cls-2" d="M126.78,11.81a5.81,5.81,0,0,0,1.69-.31v2a6,6,0,0,1-2.46.45,3,3,0,0,1-2.34-.81,3.54,3.54,0,0,1-.73-2.44V6h-1.28V4.83l1.48-.9.77-2.07h1.71V3.95h2.75V6h-2.75V10.7a1,1,0,0,0,.32.84A1.27,1.27,0,0,0,126.78,11.81Z"/></g></g></svg>